<?xml version="1.0" encoding="UTF-8"?>
<svg id="Layer_1" data-name="Layer 1" xmlns="http://www.w3.org/2000/svg" xmlns:xlink="http://www.w3.org/1999/xlink" viewBox="0 0 312.55 294.41">
  <defs>
    <style>
      .cls-1 {
        letter-spacing: .08em;
      }

      .cls-2, .cls-3 {
        stroke-width: 0px;
      }

      .cls-2, .cls-4 {
        fill: #7e70b3;
      }

      .cls-3 {
        fill: url(#linear-gradient);
      }

      .cls-4 {
        stroke: #7e70b3;
      }

      .cls-4, .cls-5, .cls-6 {
        font-family: Roboto-Bold, Roboto;
        font-size: 17px;
        font-weight: 700;
        stroke-miterlimit: 10;
      }

      .cls-7 {
        letter-spacing: .09em;
      }

      .cls-8 {
        letter-spacing: .1em;
      }

      .cls-5 {
        fill: #de5e83;
        letter-spacing: .1em;
        stroke: #de5e83;
      }

      .cls-9 {
        letter-spacing: .05em;
      }

      .cls-10 {
        letter-spacing: .09em;
      }

      .cls-11 {
        letter-spacing: .06em;
      }

      .cls-12 {
        letter-spacing: .09em;
      }

      .cls-13 {
        letter-spacing: .06em;
      }

      .cls-14 {
        letter-spacing: .08em;
      }

      .cls-6 {
        fill: #4591ce;
        stroke: #4591ce;
      }
    </style>
    <linearGradient id="linear-gradient" x1="156.27" y1="62.36" x2="156.27" y2="165.7" gradientUnits="userSpaceOnUse">
      <stop offset="0" stop-color="#4591ce"/>
      <stop offset=".5" stop-color="#7e70b3"/>
      <stop offset="1" stop-color="#de5e83"/>
    </linearGradient>
  </defs>
  <g>
    <polygon class="cls-2" points="219.4 7.38 219.4 5.38 93.73 5.38 4.2 87.88 4.2 204.72 93.73 287.23 220.19 287.23 309.72 204.72 309.72 87.88 220.19 5.38 219.4 5.38 219.4 7.38 218.05 8.85 305.72 89.64 305.72 202.97 218.62 283.23 95.3 283.23 8.2 202.97 8.2 89.64 95.3 9.38 219.4 9.38 219.4 7.38 218.05 8.85 219.4 7.38"/>
    <ellipse class="cls-2" cx="245.98" cy="216.8" rx="6.84" ry="7.38"/>
    <ellipse class="cls-2" cx="305.71" cy="205.71" rx="6.84" ry="7.38"/>
    <ellipse class="cls-2" cx="278.95" cy="147.94" rx="6.84" ry="7.38"/>
    <ellipse class="cls-2" cx="240.56" cy="64.69" rx="6.84" ry="7.38"/>
    <ellipse class="cls-2" cx="216.19" cy="7.38" rx="6.84" ry="7.38"/>
    <ellipse class="cls-2" cx="100.02" cy="7.38" rx="6.84" ry="7.38"/>
    <ellipse class="cls-2" cx="163.8" cy="35.49" rx="6.84" ry="7.38"/>
    <ellipse class="cls-2" cx="217.33" cy="285.23" rx="6.84" ry="7.38"/>
    <ellipse class="cls-2" cx="305.71" cy="89.91" rx="6.84" ry="7.38"/>
    <polygon class="cls-2" points="158.45 36.02 103.87 12.23 105.26 8.87 159.84 32.66 158.45 36.02"/>
    <polygon class="cls-2" points="306.63 90.86 165.39 38.02 166.81 33.99 308.05 86.83 306.63 90.86"/>
    <polygon class="cls-2" points="214.69 6.45 67.18 80.58 68.8 83.97 216.32 9.85 214.69 6.45"/>
    <polygon class="cls-2" points="304.39 207.92 213.95 11.04 216.98 9.54 307.41 206.42 304.39 207.92"/>
    <polygon class="cls-2" points="246.42 213.3 304.27 204.2 304.84 207.85 246.99 216.95 246.42 213.3"/>
    <polygon class="cls-2" points="214.47 281.97 301.23 92.76 304.28 94.25 217.52 283.45 214.47 281.97"/>
    <ellipse class="cls-2" cx="63.72" cy="84.76" rx="6.84" ry="7.38"/>
    <ellipse class="cls-2" cx="7.42" cy="86.65" rx="6.84" ry="7.38"/>
    <ellipse class="cls-2" cx="31.66" cy="147.94" rx="6.84" ry="7.38"/>
    <ellipse class="cls-2" cx="63.72" cy="225.07" rx="6.84" ry="7.38"/>
    <ellipse class="cls-2" cx="93.75" cy="287.03" rx="6.84" ry="7.38"/>
    <ellipse class="cls-2" cx="143.95" cy="262.36" rx="6.84" ry="7.38"/>
    <ellipse class="cls-2" cx="6.84" cy="201.13" rx="6.84" ry="7.38"/>
    <polygon class="cls-2" points="150.99 262.08 216.99 282.98 215.96 286.47 149.96 265.57 150.99 262.08"/>
    <polygon class="cls-2" points="5.53 196.23 142.47 259.39 140.76 263.3 3.82 200.15 5.53 196.23"/>
    <polygon class="cls-2" points="90.38 284.42 240.28 215.73 241.78 219.19 91.88 287.87 90.38 284.42"/>
    <polygon class="cls-2" points="67.68 228.98 93.75 283.62 90.55 285.23 64.48 230.59 67.68 228.98"/>
    <polygon class="cls-2" points="10.83 92.35 63.25 219.67 59.75 221.19 7.34 93.86 10.83 92.35"/>
    <polygon class="cls-2" points="61.3 86.03 10.18 89.91 9.94 86.56 61.06 82.69 61.3 86.03"/>
    <polygon class="cls-2" points="100.02 12.33 9.2 200.22 6.13 198.66 96.95 10.76 100.02 12.33"/>
  </g>
  <path class="cls-3" d="m128.94,66.6c-.23-1.39,2.13-2.85,2.96-3.35.8-.49,1.72-.8,3.53-1.44,1.22-.43,2.34-.82,3.87-1.15,1.16-.25,2.67-.58,4.65-.58,1.82,0,3.3,0,4.97.77.5.23,2.31,1.09,3.38,2.97.56.98.67,1.79.85,3.07.26,1.91-.09,2.15,0,4.7.08,2.44.43,2.84,0,4.03-.49,1.36-1.43,2.18-1.69,2.4-1.12.93-2.32,1.2-2.96,1.34-.7.15-1.92.4-3.38,0-1.23-.34-2.01-.98-2.43-1.34-1.26-1.07-1.09-1.68-2.33-3.16-.6-.72-1.38-1.34-2.96-2.59-.95-.75-1.95-1.54-3.28-2.4-3.49-2.24-5-2.19-5.18-3.26Zm55.48,0c.23-1.39-2.13-2.85-2.96-3.35-.8-.49-1.72-.8-3.53-1.44-1.22-.43-2.34-.82-3.87-1.15-1.16-.25-2.67-.58-4.65-.58-1.82,0-3.3,0-4.97.77-.5.23-2.31,1.09-3.38,2.97-.56.98-.67,1.79-.85,3.07-.26,1.91.09,2.15,0,4.7-.08,2.44-.43,2.84,0,4.03.49,1.36,1.43,2.18,1.69,2.4,1.12.93,2.32,1.2,2.96,1.34.7.15,1.92.4,3.38,0,1.23-.34,2.01-.98,2.43-1.34,1.26-1.07,1.09-1.68,2.33-3.16.6-.72,1.38-1.34,2.96-2.59.95-.75,1.95-1.54,3.28-2.4,3.49-2.24,5-2.19,5.18-3.26Zm-31.49,16.39c-.54.42-1.45,1.04-2.75,1.44-1.86.58-3.45.39-4.23.29-1.1-.14-2-.48-3.81-1.15-1.63-.61-2.45-.91-3.07-1.34-1.39-.97-1.35-1.73-2.75-3.45-.53-.65-1.55-1.52-3.59-3.26-2.77-2.36-3.67-2.87-4.54-3.26-1.01-.45-1.79-.78-2.85-.77-.68,0-1.64.16-4.12,1.73-1.39.88-2.69,1.7-4.23,3.16-1.91,1.82-2.98,3.48-3.81,4.79-1.16,1.84-1.8,3.37-3.07,6.42-.33.79-.64,1.87-1.27,4.03-.49,1.7-.65,2.43-.21,2.88.43.44,1.13.28,2.64.29,0,0,1.86,0,4.02.38,2.46.43,4.15,1.7,5.07,2.4,2.52,1.89,3.56,4.07,3.81,4.6.52,1.15.7,2.39,1.06,4.89.23,1.6.41,2.91.32,4.7-.03.6-.27,1.74-.74,4.03-.17.82-.3,1.39-.85,1.82-.85.67-2.08.51-2.33.48-.34-.04-1.26-.16-1.8-.77-.66-.74-.24-1.69,0-3.35.17-1.15.11-2.4,0-4.89-.1-2.24-.15-3.36-.53-4.31-.28-.71-1.07-2.62-3.17-3.83-1.11-.64-2.12-.82-3.49-1.05-1.5-.26-2.69-.46-4.02,0-1.24.43-1.97,1.23-2.33,1.63-.44.49-1.31,1.63-1.69,4.89-.21,1.82-.14,3.13,0,5.37.11,1.79.22,3.53.63,5.85.33,1.84.34,1.22,1.59,6.23.71,2.85.84,3.61,1.59,4.79.2.31,1.07,1.66,2.75,2.97,1.51,1.18,2.95,1.77,3.59,2.01.89.33,2.4.88,4.44.86.88,0,2.54-.02,4.23-.86,1.8-.9,2.67-2.27,3.81-4.12,1.42-2.32.91-2.51,2.22-4.7.97-1.62,1.14-1.31,3.91-4.89,1.59-2.06,1.77-2.46,2.75-3.35,1.03-.95,2.13-1.95,3.91-2.49,1.92-.58,3.61-.31,4.97-.1.71.11,2.2.35,3.91,1.15,1.66.77,2.21,1.47,2.75,1.25.59-.24.41-1.29.42-3.45,0-.21.18-2.51.53-7.09.11-1.41.64-2.34.21-2.59-.41-.24-1.06.42-2.43,1.05-2.28,1.05-4.45,1.06-5.18,1.05-.74,0-2.33-.03-4.12-.77-1.79-.73-2.82-1.79-3.81-2.78-1.21-1.22-1.89-2.32-2.64-3.55-1.18-1.92-1-2.14-2.22-4.22-.65-1.1-1.46-2.47-2.85-4.03-1.24-1.39-1.87-2.09-2.96-2.68-.57-.31-.89-.4-3.49-1.63-.8-.38-1.11-.53-1.48-.86-.26-.23-1.51-1.35-1.16-2.59.28-1,1.46-1.56,2.33-1.73,1.04-.2,2.18.31,4.44,1.34,1.63.74,2.45,1.12,3.28,1.73,1,.74,1.62,1.48,2.85,2.97.64.78.71.92,2.54,3.35,1.92,2.56,1.97,2.58,2.33,3.16,1.11,1.82.76,1.95,1.8,3.45.42.62,1.3,1.78,2.75,2.88.74.56,1.11.84,1.59.96.38.1.84.13,4.23-1.05,0,0,.91-.32,2.64-1.05.93-.39,1.1-.5,1.27-.67.75-.79.38-2.02.21-2.97-.33-1.83.23-1.78.42-5.37.08-1.48.1-3.6-.21-6.23Zm6.47,6.23c.19,3.59.75,3.54.42,5.37-.17.95-.54,2.19.21,2.97.17.18.34.28,1.27.67,1.73.74,2.64,1.05,2.64,1.05,3.39,1.18,3.84,1.15,4.23,1.05.48-.12.85-.4,1.59-.96,1.45-1.1,2.32-2.26,2.75-2.88,1.03-1.5.69-1.63,1.8-3.45.35-.58.41-.6,2.33-3.16,1.83-2.44,1.89-2.58,2.54-3.35,1.23-1.49,1.85-2.23,2.85-2.97.83-.61,1.64-.98,3.28-1.73,2.25-1.03,3.4-1.54,4.44-1.34.87.16,2.05.73,2.33,1.73.35,1.24-.91,2.36-1.16,2.59-.37.33-.68.48-1.48.86-2.6,1.23-2.92,1.32-3.49,1.63-1.09.6-1.72,1.29-2.96,2.68-1.39,1.56-2.21,2.93-2.85,4.03-1.22,2.08-1.04,2.3-2.22,4.22-.76,1.23-1.44,2.32-2.64,3.55-.98.99-2.02,2.04-3.81,2.78-1.79.74-3.38.76-4.12.77-.73,0-2.89,0-5.18-1.05-1.37-.63-2.03-1.29-2.43-1.05-.43.25.1,1.17.21,2.59.35,4.59.53,6.88.53,7.09.01,2.16-.17,3.21.42,3.45.53.22,1.09-.47,2.75-1.25,1.71-.8,3.2-1.04,3.91-1.15,1.36-.22,3.05-.49,4.97.1,1.78.54,2.88,1.54,3.91,2.49.97.89,1.16,1.3,2.75,3.35,2.77,3.58,2.94,3.27,3.91,4.89,1.31,2.18.8,2.38,2.22,4.7,1.14,1.85,2,3.22,3.81,4.12,1.69.84,3.35.86,4.23.86,2.04.01,3.55-.53,4.44-.86.64-.24,2.08-.83,3.59-2.01,1.68-1.31,2.55-2.66,2.75-2.97.75-1.18.88-1.94,1.59-4.79,1.24-5.01,1.26-4.39,1.59-6.23.41-2.32.52-4.05.63-5.85.14-2.24.21-3.55,0-5.37-.38-3.26-1.26-4.4-1.69-4.89-.36-.4-1.08-1.2-2.33-1.63-1.33-.46-2.52-.26-4.02,0-1.36.24-2.37.41-3.49,1.05-2.1,1.21-2.89,3.12-3.17,3.83-.38.95-.43,2.07-.53,4.31-.11,2.49-.17,3.74,0,4.89.24,1.66.66,2.61,0,3.35-.53.6-1.46.72-1.8.77-.25.03-1.48.19-2.33-.48-.55-.43-.68-1-.85-1.82-.47-2.29-.71-3.43-.74-4.03-.09-1.78.09-3.1.32-4.7.36-2.5.53-3.74,1.06-4.89.24-.53,1.29-2.71,3.81-4.6.93-.7,2.62-1.97,5.07-2.4,2.15-.38,4.02-.38,4.02-.38,1.51,0,2.21.15,2.64-.29.44-.44.28-1.18-.21-2.88-.63-2.15-.94-3.23-1.27-4.03-1.27-3.05-1.9-4.58-3.07-6.42-.83-1.31-1.89-2.97-3.81-4.79-1.54-1.47-2.84-2.28-4.23-3.16-2.48-1.57-3.44-1.72-4.12-1.73-1.07-.01-1.84.32-2.85.77-.87.38-1.77.9-4.54,3.26-2.04,1.74-3.07,2.61-3.59,3.26-1.4,1.72-1.36,2.48-2.75,3.45-.62.43-1.43.73-3.07,1.34-1.8.67-2.71,1.01-3.81,1.15-.78.1-2.36.29-4.23-.29-1.29-.4-2.21-1.02-2.75-1.44-.31,2.63-.29,4.75-.21,6.23Zm-9.43,43.9c.62-.41.36-1.03.63-4.03.21-2.29.31-3.44.53-4.31.32-1.28.6-1.73.32-2.4-.31-.73-1.01-1.09-2.43-1.82-.61-.31-1.56-.8-2.96-1.15-1.36-.34-2.39-.61-3.7-.38-1.78.3-2.91,1.31-3.49,1.82-.39.35-.71.7-2.11,2.88-1.23,1.92-1.85,2.87-2.64,4.31-1.19,2.16-1.02,2.19-1.9,3.64-1.14,1.87-2.23,3.16-2.75,3.74-1.47,1.66-2.21,2.48-3.38,3.07-.15.07-.85.41-1.85.66-.32.08-1.45.34-3.32.3-2.31-.06-3.42-.53-3.7-.1-.15.24.08.49.42,1.34.41,1.02.34,1.31.63,2.3.06.21.49,1.6,1.37,2.97.44.68.74.97,2.54,2.78,2.7,2.72,2.45,2.51,2.75,2.78,1.64,1.48,2.72,2.46,4.44,3.26,1.73.8,3.21,1.01,5.6,1.34,1.86.26,2.79.39,3.91.19,2.32-.41,3.81-1.73,4.44-2.3,1.4-1.28,1.96-2.58,3.07-5.18.89-2.1.49-1.78,1.9-5.66.24-.67.72-1.95,1.06-3.74.13-.67.41-1.01.21-1.34-.45-.76-2.47-.81-4.02-.29-.78.26-1.13.56-4.33,3.55-2.05,1.91-2.14,2.01-2.33,2.3-.82,1.33-.73,2.3-1.9,3.26-.31.26-.82.66-1.59.77-1.03.15-2.18-.29-2.75-1.05-.74-1-.25-2.25.11-3.16.34-.88.77-1.5,3.17-4.12,1.58-1.72,2.38-2.6,3.07-3.16,1.16-.96,2.26-1.86,4.02-2.49.54-.19,1.71-.6,3.28-.67,2.23-.1,2.95.59,3.7.1Zm16.56-.1c1.57.07,2.74.48,3.28.67,1.75.63,2.86,1.53,4.02,2.49.68.57,1.48,1.44,3.07,3.16,2.41,2.62,2.83,3.25,3.17,4.12.36.91.84,2.16.11,3.16-.56.76-1.71,1.2-2.75,1.05-.77-.11-1.27-.51-1.59-.77-1.17-.96-1.08-1.93-1.9-3.26-.18-.29-.28-.39-2.33-2.3-3.21-2.99-3.56-3.29-4.33-3.55-1.55-.52-3.56-.48-4.02.29-.2.34.09.68.21,1.34.34,1.78.81,3.07,1.06,3.74,1.41,3.88,1.01,3.56,1.9,5.66,1.11,2.6,1.66,3.9,3.07,5.18.63.57,2.12,1.89,4.44,2.3,1.12.2,2.05.07,3.91-.19,2.39-.33,3.87-.54,5.6-1.34,1.72-.8,2.8-1.77,4.44-3.26.3-.27.05-.06,2.75-2.78,1.79-1.81,2.1-2.1,2.54-2.78.89-1.37,1.31-2.76,1.37-2.97.29-.99.23-1.28.63-2.3.34-.86.57-1.11.42-1.34-.28-.44-1.39.04-3.7.1-1.87.05-3-.22-3.32-.3-1-.25-1.71-.59-1.85-.66-1.18-.58-1.91-1.41-3.38-3.07-.52-.58-1.61-1.87-2.75-3.74-.89-1.46-.71-1.48-1.9-3.64-.79-1.44-1.41-2.4-2.64-4.31-1.4-2.18-1.72-2.53-2.11-2.88-.57-.51-1.71-1.52-3.49-1.82-1.31-.22-2.34.04-3.7.38-1.4.35-2.35.84-2.96,1.15-1.42.73-2.12,1.09-2.43,1.82-.28.67,0,1.12.32,2.4.22.88.32,2.02.53,4.31.27,3,.01,3.62.63,4.03.75.49,1.47-.2,3.7-.1Z"/>
  <g>
    <g>
      <text class="cls-5" transform="translate(121.39 175.43) scale(1.31 1)"><tspan x="0" y="0">ESSAI</tspan></text>
      <text class="cls-4" transform="translate(107.67 194.84) scale(1.24 1)"><tspan class="cls-8" x="0" y="0">M</tspan><tspan class="cls-14" x="16.59" y="0">A</tspan><tspan class="cls-12" x="29.4" y="0">CHINE</tspan></text>
      <text class="cls-6" transform="translate(128.45 230.82) scale(1.31 1)"><tspan class="cls-10" x="0" y="0">C</tspan><tspan class="cls-1" x="12.67" y="0">L</tspan><tspan class="cls-7" x="23.22" y="0">UB</tspan></text>
    </g>
    <text class="cls-4" transform="translate(106.24 212.86) scale(1.25 1)"><tspan class="cls-11" x="0" y="0">LEAR</tspan><tspan class="cls-9" x="45.41" y="0">NI</tspan><tspan class="cls-13" x="63.9" y="0">NG</tspan></text>
  </g>
</svg>